<?xml version="1.0" encoding="UTF-8" standalone="no"?>
<svg
   viewBox="0 0 576 512"
   version="1.1"
   id="svg4"
   sodipodi:docname="desktop.svg"
   inkscape:version="1.1.1 (3bf5ae0, 2021-09-20)"
   xmlns:inkscape="http://www.inkscape.org/namespaces/inkscape"
   xmlns:sodipodi="http://sodipodi.sourceforge.net/DTD/sodipodi-0.dtd"
   xmlns="http://www.w3.org/2000/svg"
   xmlns:svg="http://www.w3.org/2000/svg">
  <defs
     id="defs8" />
  <sodipodi:namedview
     id="namedview6"
     pagecolor="#ffffff"
     bordercolor="#666666"
     borderopacity="1.0"
     inkscape:pageshadow="2"
     inkscape:pageopacity="0.0"
     inkscape:pagecheckerboard="0"
     showgrid="true"
     inkscape:zoom="0.72753906"
     inkscape:cx="594.4698"
     inkscape:cy="448.77315"
     inkscape:window-width="1242"
     inkscape:window-height="938"
     inkscape:window-x="16"
     inkscape:window-y="40"
     inkscape:window-maximized="1"
     inkscape:current-layer="svg4" />
  <!-- Font Awesome Free 5.15.3 by @fontawesome - https://fontawesome.com License - https://fontawesome.com/license/free (Icons: CC BY 4.0, Fonts: SIL OFL 1.1, Code: MIT License) -->
  <path
     id="path2"
     style="fill:#ffffff;stroke:none"
     d="M 48,-0.24155978 C 21.5,-0.24155978 0,21.25844 0,47.75844 v 320.00004 c 0,26.5 21.5,48 48,48 h 192 l -0.65625,57.5996 H 151.6582 c -13.3,0 -23.6582,5.8054 -23.6582,19.1054 0,13.3 10.7,19.295 24,19.295 h 272 c 13.3,0 24,-6.3055 24,-19.6055 0,-13.3 -11.0418,-18.7949 -24.3418,-18.7949 H 336.9707 L 336,415.75848 h 192 c 26.5,0 48,-21.5 48,-48 V 47.75844 c 0,-26.5 -21.5,-47.99999978 -48,-47.99999978 z M 60.570312,30.90883 H 515.42969 c 19.08947,0 34.45703,15.36756 34.45703,34.45703 v 288.86719 c 0,19.08943 -15.36756,34.45703 -34.45703,34.45703 H 60.570312 c -19.089466,0 -34.457031,-15.3676 -34.457031,-34.45703 V 65.36586 c 0,-19.08947 15.367565,-34.45703 34.457031,-34.45703 z" />
  <g
     id="g3314"
     transform="translate(20,-624.83737)"
     style="fill:none;stroke:#ffffff">
    <path
       style="fill:none;stroke:#ffffff;stroke-width:27.4;stroke-linecap:round;stroke-linejoin:round;stroke-miterlimit:4;stroke-dasharray:none;stroke-dashoffset:175.36;stroke-opacity:1"
       d="M 77.64617,828 140,720 197.64617,828"
       id="path2486"
       sodipodi:nodetypes="ccc" />
    <path
       style="fill:none;stroke:#ffffff;stroke-width:26.3251;stroke-linecap:round;stroke-linejoin:miter;stroke-miterlimit:4;stroke-dasharray:none;stroke-opacity:1"
       d="M 180,920 H 420"
       id="path2488" />
  </g>
</svg>
